<?xml version="1.0" standalone="no"?><!DOCTYPE svg PUBLIC "-//W3C//DTD SVG 1.1//EN" "http://www.w3.org/Graphics/SVG/1.1/DTD/svg11.dtd"><svg t="1522310078486" class="icon" style="" viewBox="0 0 1024 1024" version="1.1" xmlns="http://www.w3.org/2000/svg" p-id="1276" xmlns:xlink="http://www.w3.org/1999/xlink" width="200" height="200"><defs><style type="text/css"></style></defs><path d="M725.333333 554.666667v-85.333334h42.666667v85.333334h85.333333v42.666666h-85.333333v85.333334h-42.666667v-85.333334h-85.333333v-42.666666h85.333333z m-85.333333 223.445333L544.554667 682.666667h-278.186667L170.666667 778.368V853.333333h469.333333v-75.221333z m42.666667-17.194667V896H128v-135.253333h0.085333L128 760.661333 248.661333 640l0.085334 0.085333V640h313.173333v0.298667l0.298667-0.298667 120.704 120.661333-0.256 0.256zM405.333333 213.333333A149.333333 149.333333 0 0 1 554.666667 362.666667v85.333333a149.333333 149.333333 0 1 1-298.666667 0v-85.333333A149.333333 149.333333 0 0 1 405.333333 213.333333z m0 42.666667A106.666667 106.666667 0 0 0 298.666667 362.666667v85.333333a106.666667 106.666667 0 1 0 213.333333 0v-85.333333A106.666667 106.666667 0 0 0 405.333333 256z" fill="#8161d1" p-id="1277"></path></svg>